<svg width="167.92mm" height="175.4mm" version="1.1" viewBox="0 0 167.92 175.4" xml:space="preserve" xmlns="http://www.w3.org/2000/svg"><g><path d="m97.566 168.66c-0.17398-2.7844-0.01305-4.7457 0.49938-6.086 0.70542-1.845 1.0243-2.4534 1.6472-3.1429 0.32843-0.36352 0.55984-0.66095 0.51426-0.66095-0.0456 0-0.80928 0.15064-1.6971 0.33477-4.0768 0.84547-7.8599 1.28-12.613 1.4487l-3.4972 0.12413-0.5283 0.50243c-1.3073 1.2433-3.8552 2.532-6.5038 3.2896-3.0734 0.8791-3.3019 0.90685-7.6944 0.9342-3.1466 0.0196-4.4564 0.09-5.3188 0.28594-0.62928 0.14297-1.1627 0.24143-1.1853 0.21878-0.0226-0.0226 0.52905-0.28783 1.226-0.58929s2.1144-1.0047 3.1498-1.5628c2.9782-1.6052 4.9331-2.2784 8.7638-3.3235 1.3286-0.36249 2.3594-0.70912 2.3718-0.88072 0.01161-0.16031-1.1525-0.83467-1.7374-1.5964-0.89532-1.1661-1.4622-2.5493-1.9515-4.7616-0.21609-0.97695-0.54857-2.0815-0.73886-2.4545s-0.31146-0.7127-0.26927-0.75489c0.0422-0.0422 0.50777 0.13987 1.0346 0.40457 0.52685 0.26471 1.7314 0.75846 2.6769 1.0972 1.993 0.71412 4.4845 1.905 5.075 2.4259 0.85245 0.75179 1.2927 1.4492 1.7147 2.7165 0.34202 1.027 0.41151 1.4696 0.3232 2.0585l-0.1125 0.7502 1.6976-0.0856c0.93368-0.0471 2.6185-0.12655 3.744-0.17663 6.9237-0.30811 15.337-2.1651 22.428-4.9502 2.1253-0.83474 6.7083-2.9166 6.9477-3.156 0.10066-0.10066-0.0461-0.15942-0.40745-0.1631-0.94876-0.01-2.4575-0.39743-4.4201-1.136-2.5057-0.94298-3.7777-1.7416-8.0553-5.0574-0.51805-0.40158-0.91979-0.75225-0.89277-0.77928 0.027-0.027 0.41405 0.068 0.86006 0.21128 0.61291 0.19683 1.5904 0.26666 4.0033 0.28599 2.9863 0.0239 3.2868 0.0548 4.6553 0.47838 0.8046 0.24905 1.9778 0.70645 2.607 1.0164 0.62925 0.31 1.1734 0.53427 1.2093 0.49838 0.0359-0.0359-0.0134-0.34841-0.10949-0.69451-0.40695-1.4656-0.13752-4.2742 0.53464-5.5734 0.17902-0.34601 0.27107-0.92609 0.27107-1.7082v-1.1842l1.2399 1.7589c1.9087 2.7076 2.4479 3.8212 2.861 5.9087 0.30851 1.5588 0.32949 1.9113 0.15903 2.673-0.108 0.48258-0.16365 0.91012-0.12368 0.95009 0.11376 0.11376 4.7783-3.0275 6.591-4.4386 6.9204-5.3871 12.799-11.761 17.203-18.655 0.35787-0.5601 0.33269-0.54772-1.368 0.67245-0.66972 0.48051-1.7449 1.1308-2.3894 1.4451-1.1339 0.55308-4.916 1.7872-4.8204 1.573 0.088-0.19743 1.6803-2.5034 2.5954-3.7588 1.0182-1.3968 2.8365-3.0114 4.6139-4.0969 1.5305-0.93475 3.6145-1.7031 4.2442-1.5648 0.46333 0.10177 0.48202 0.0759 1.5101-2.0929 2.9704-6.2661 5.1316-12.939 6.2173-19.196 0.44461-2.5624 0.97937-6.7902 0.87241-6.8971-0.0341-0.03405-0.23965 0.18243-0.45689 0.48108-0.60464 0.83125-2.7438 2.7851-3.751 3.4262-0.86793 0.55239-4.8022 2.5806-5.0058 2.5806-0.0548 0 0.22944-0.3659 0.63152-0.81312 0.45933-0.51088 0.79835-1.0803 0.91208-1.532 0.42902-1.7038 2.0808-4.0606 3.8283-5.4622l0.97599-0.78282-0.87564-0.26214c-1.3833-0.41413-2.2335-0.92406-3.2407-1.9439-0.55318-0.56009-1.1914-1.0319-1.5608-1.1538-0.84387-0.2785-0.57212-0.39592 1.6637-0.71889 2.3177-0.3348 2.7984-0.32989 4.3213 0.04409 1.2929 0.31749 1.8366 0.54393 2.3211 0.96663 0.15812 0.13795 0.34229 0.19598 0.40927 0.12897 0.067-0.06701 0.1007-1.2391 0.0749-2.6047-0.29465-15.617-5.4906-30.531-15.063-43.236l-1.2251-1.6259 0.93771-0.80658 0.4953 0.61091c1.2815 1.5807 3.6043 4.9169 4.966 7.1328 5.5174 8.978 9.0893 18.921 10.497 29.221 1.1477 8.3948 0.83509 17.477-0.8789 25.539-0.22973 1.0805-0.41806 2.0205-0.41853 2.0889-4.9e-4 0.0684 0.35652-0.0625 0.79329-0.29088 1.0117-0.52899 3.153-0.80159 4.4551-0.56713 0.50097 0.0902 1.7534 0.45026 2.7831 0.80012l1.8722 0.6361-0.70474 0.12128c-0.38761 0.0667-0.94013 0.29326-1.2278 0.50345-1.7839 1.3033-2.5106 1.6339-3.969 1.8053l-0.85884 0.10095 0.58135 0.75705c0.80626 1.05 1.3215 2.2369 1.4827 3.4158 0.094 0.68763 0.27633 1.1832 0.58319 1.5855 0.2455 0.32188 0.3654 0.58524 0.26644 0.58524-0.099 0-1.1157-0.4542-2.2594-1.0093-1.7821-0.86502-2.228-1.1635-3.1185-2.0873-0.57149-0.59289-1.2022-1.3975-1.4017-1.788l-0.36262-0.70999-0.28244 1.0159c-0.70014 2.5183-2.9147 8.07-4.4479 11.151l-0.72068 1.4481 0.45345 0.23449c1.242 0.64228 2.4325 2.3423 3.1912 4.5572 0.40504 1.1824 0.43512 1.4652 0.43512 4.0909v2.8207l-0.53206-0.81128c-0.36977-0.56383-0.98148-1.121-2.0055-1.8265-0.8135-0.56055-1.7476-1.3695-2.0857-1.8062-0.67081-0.8665-1.2649-2.4071-1.28-3.3194-9e-3 -0.51439-0.0323-0.54642-0.20464-0.27528-1.1668 1.8359-3.6732 5.5354-4.4515 6.5705-9.4721 12.597-22.927 22.087-37.824 26.677-2.5264 0.77847-3.0494 0.96155-2.399 0.8397 0.98628-0.18478 3.0955 1.1996 3.8082 2.4995 0.17981 0.32794 0.5526 0.96175 0.82842 1.4085 0.59151 0.95803 1.0028 2.4663 1.3764 5.0478 0.35275 2.4374 0.30756 2.6158-0.41483 1.6376-0.42479-0.57522-0.78003-0.85269-1.3735-1.0728-1.6549-0.61374-3.2069-2.0044-4.3383-3.8873-0.19048-0.31701-0.34457-0.45482-0.34491-0.3085-1e-3 0.50599-1.1625 2.5827-1.9078 3.4117-0.41255 0.45886-1.0623 1.0172-1.4438 1.2408-0.86208 0.50522-1.1002 0.76818-1.6108 1.779l-0.40531 0.8024zm-74.096-38.085c-3.7029-4.9644-6.6948-10.118-8.9125-15.352-0.51503-1.2156-0.95639-2.2345-0.98081-2.2643-0.0244-0.0298-0.16591 0.20186-0.31443 0.51484-0.61363 1.2931-2.5537 2.9847-4.5982 4.0092-1.0471 0.52469-4.3325 1.7189-4.4382 1.6132-0.0341-0.0341 0.20214-0.26343 0.52496-0.50965 0.32281-0.24623 0.7672-0.82744 0.98753-1.2916 0.78897-1.6621 2.5634-3.5254 4.1402-4.3474l0.5488-0.28612-0.83046-0.34513c-0.8891-0.36949-2.3626-1.6352-2.7294-2.3445-0.12295-0.23776-0.44803-0.52528-0.7224-0.63893-0.98419-0.40767-0.53476-0.52672 1.7522-0.46415 2.0798 0.0569 2.3401 0.0999 3.4212 0.56579l1.1702 0.50419-0.3161-0.91844c-1.68-4.8812-3.1225-12.109-3.578-17.927-0.21233-2.7121-0.21233-8.6183 0-11.33 0.29496-3.7676 1.194-9.353 2.0426-12.691l0.10927-0.42974-1.0358-0.0035c-1.396-0.0047-2.6338-0.49681-3.7486-1.4904-1.1415-1.0174-1.6534-1.9845-2.1296-4.0231-0.26493-1.1341-0.54453-1.8726-0.92046-2.4312-0.29697-0.44129-0.53995-0.83302-0.53995-0.87051s0.34993 0.10666 0.77763 0.32033 1.3293 0.55387 2.0035 0.756c1.4472 0.43387 2.1467 0.77406 3.0149 1.4662 0.3515 0.28024 0.66367 0.48495 0.6937 0.45492 0.03-0.03004-0.0876-0.45918-0.26137-0.95366-0.45377-1.291-0.95028-3.8685-1.1469-5.9537-0.3063-3.2484-0.18291-5.9821 0.39903-8.8404 0.12833-0.63029 0.32174-1.809 0.42981-2.6194 0.25007-1.8753 0.37178-2.122 0.63806-1.2932 0.1128 0.35108 0.63238 1.5675 1.1546 2.7032 1.048 2.2791 1.6227 4.0155 2.107 6.3663 0.38143 1.8515 0.81942 5.6047 0.87401 7.4897 0.045 1.555-0.10958 1.7616 1.4396-1.9235 4.2995-10.227 11.434-19.967 20.046-27.366 3.6336-3.1219 8.5697-6.5476 12.728-8.8332l1.5751-0.86577-0.52129-0.22992c-0.28671-0.12646-0.70547-0.31179-0.93057-0.41184-0.2251-0.10005-1.0461-0.81697-1.8244-1.5932-1.1438-1.1407-1.5423-1.6752-2.0788-2.7881-0.62937-1.3056-1.9847-4.8033-1.9886-5.1319-9.8e-4 -0.08438 0.20077 0.03703 0.44838 0.2698 0.68028 0.6395 1.5442 1.1101 2.039 1.1108 1.2887 0.0018 4.192 1.6298 5.1527 2.8894l0.44743 0.58661 0.20105-1.1932c0.25982-1.542 1.1463-3.33 2.2479-4.5339 0.86051-0.94042 1.1339-1.4451 1.3362-2.4667 0.0592-0.29907 0.13123-0.52008 0.16003-0.49113 0.1497 0.1505 1.247 4.8126 1.3777 5.8535 0.16569 1.3196-0.0883 3.5957-0.54479 4.8813-0.13587 0.38268-0.2207 0.69577-0.18851 0.69577 0.0322 0 1.0918-0.40284 2.3547-0.89521 8.1532-3.1787 17.652-4.9984 26.091-4.9984h2.4229v-0.43326c0-0.23829 0.25195-0.81283 0.55988-1.2768 2.0991-3.1624 7.0557-5.378 11.456-5.1209 0.81952 0.047879 2.3004 0.28583 3.2909 0.52877 2.1751 0.53352 4.2842 0.6899 5.6584 0.41954 0.55205-0.10861 1.037-0.16417 1.0777-0.12347 0.0407 0.040702-0.46373 0.36937-1.121 0.73038-0.65724 0.36101-2.0903 1.3162-3.1847 2.1228-2.5647 1.8901-4.3593 2.8054-7.0963 3.619-3.6981 1.0994-4.397 1.2137-6.7122 1.0974-6.9316-0.34824-10.84-0.2622-15.307 0.33692-5.5437 0.74359-11.32 2.2274-16.617 4.2682-2.7096 1.044-4.9113 2.0297-4.9113 2.1985 0 0.08024-0.13764 0.14589-0.30587 0.14589-0.42877 0-3.4142 1.5576-6.3511 3.3135-2.7564 1.648-5.5616 3.6054-8.3062 5.7957l-1.8172 1.4502 1.8827 0.10286c1.959 0.10703 4.5948 0.61302 5.9253 1.1375 1.0715 0.42234 3.4742 1.6405 5.5276 2.8024 1.912 1.0819 2.3058 1.3797 1.6072 1.2151-1.3632-0.3211-2.3565-0.29905-3.6493 0.08104-1.111 0.32664-1.6632 0.38374-3.6809 0.3806-2.3938-0.0037-3.9465-0.26632-5.7708-0.97595-0.33766-0.13134-0.61392-0.20529-0.61392-0.16433 0 0.04096 0.13772 0.42713 0.30604 0.85816 0.71489 1.8306 0.79307 3.8556 0.22157 5.7386-0.23937 0.78871-0.2395 0.95604-1e-3 1.9645l0.26016 1.1024-1.5547-1.6371c-1.8519-1.9501-2.9237-3.3345-3.3587-4.3383-0.58426-1.3484-0.95063-2.5474-1.0727-3.5104l-0.12077-0.95301-1.1472 1.2085c-10.397 10.953-17.174 24.655-19.545 39.517-0.65047 4.0774-0.92746 8.384-0.85966 13.366l0.0237 1.7424 1.1511-1.1872c0.63313-0.65295 1.5122-1.3837 1.9534-1.6238 0.80816-0.43985 4.1216-1.738 4.4361-1.738 0.0931 0-0.0659 0.29262-0.35337 0.65028-0.34197 0.42553-0.56666 0.92919-0.65015 1.4573-0.18255 1.1548-0.87046 2.5037-1.7898 3.5097l-0.79548 0.87039 0.92997 0.19466c1.3268 0.27772 2.5233 0.88151 3.4328 1.7323 0.51963 0.48606 1.05 0.80717 1.5573 0.94285 0.42311 0.11317 0.7693 0.24756 0.7693 0.29864 0 0.13978-3.379 0.97972-4.5021 1.1191-1.5257 0.18935-3.6536-0.15712-4.7438-0.77237l-0.90423-0.51032v0.42025c0 0.23114 0.0783 0.95005 0.17399 1.5976 1.8429 12.47 6.7744 24.269 14.26 34.119 1.3631 1.7936 1.397 1.926 0.60255 2.3512-0.25502 0.13648-0.51117-0.12738-1.7966-1.8507zm59.284-45.475v-35.689h1.6371v71.378h-1.6371zm-37.162 21.797c0-0.0773 0.97612-0.18125 2.1692-0.23107 3.1286-0.13064 3.992-0.52597 4.8168-2.2055l0.46292-0.9427 0.11519-17.026c0.11539-17.056 0.0729-21.397-0.22097-22.56-0.21448-0.84916-1.1457-1.8331-2.0738-2.1913-1.0212-0.39409-4.0712-0.38868-5.5967 0.0099-2.1445 0.56034-4.5883 1.9971-5.8107 3.4163-1.1507 1.3359-2.1533 3.7486-2.7901 6.7143-0.18219 0.84843-0.34836 1.2688-0.50158 1.2688-0.12602 0-0.2285-0.09209-0.22771-0.20464 3e-3 -0.44236 0.82839-7.302 0.98978-8.2265 0.23713-1.3584 0.84305-2.5374 1.5487-3.0135 1.2416-0.83759 1.1609-0.83375 17.499-0.83375 17.073 0 16.561-0.03265 17.783 1.1329 0.9324 0.88898 1.18 1.8915 1.7921 7.2568 0.40223 3.5254 0.41026 3.8886 0.08593 3.8886-0.13506 0-0.24557-0.13948-0.24557-0.30996 0-0.77518-1.0435-4.3229-1.6326-5.5506-0.79536-1.6576-2.0465-3.0261-3.7202-4.0693-1.5834-0.98691-3.1167-1.498-5.1886-1.7295-3.6001-0.4023-5.5426 0.55858-5.9924 2.9641-0.20284 1.0849-0.21402 34.154-0.0126 37.274 0.15505 2.4022 0.39781 3.0953 1.3889 3.9654 0.78489 0.68915 1.4584 0.85623 3.9023 0.96811 1.148 0.0526 2.0873 0.15865 2.0873 0.23575s-4.6412 0.14019-10.314 0.14019-10.314-0.0632-10.314-0.1405zm46.985 1e-3c0-0.0765 0.98076-0.18031 2.1795-0.23057 1.4672-0.0615 2.3901-0.17914 2.824-0.35994 0.86074-0.35863 1.8365-1.3342 2.0481-2.0477 0.0944-0.31829 0.2368-2.089 0.31645-3.9348 0.20095-4.6569 0.19734-33.195-4e-3 -34.59-0.12924-1.7324-0.78998-2.5757-1.5445-3.1512-0.77244-0.58917-2.2771-1.0325-4.2553-1.2538-1.7138-0.19172-1.9464-0.17039-1.7262-0.63546 0.08077-0.17059 3.9748-0.14035 10.722-0.101 11.097 0.06472 11.444 0.08629 14.657 0.91084 4.4215 1.1348 7.3207 3.2458 8.8968 6.4781 0.77824 1.596 1.1188 3.1097 1.107 4.9205-0.0115 1.767-0.31537 3.0362-1.1043 4.6127-1.1227 2.2436-2.7488 3.7799-5.5485 5.5233-2.9328 1.8263-2.6169 1.9064-1.7726 3.3558 1.099 1.8867 9.3151 13.977 11.03 16.231 1.967 2.5856 3.4538 3.5291 5.8504 3.7129 0.65565 0.0503 1.2296 0.15212 1.2755 0.22631 0.17177 0.27792-0.84997 0.34254-4.2294 0.26748-2.8106-0.0624-3.6334-0.1342-4.2941-0.37455-2.8648-1.0423-4.2432-2.6213-11.428-13.091-3.3292-4.8515-4.1691-5.9988-4.7681-6.5133-1.133-0.97324-3.4281-1.657-5.2286-1.5577-1.3991 0.07717-1.6306 0.28567-1.6605 1.9855-0.039 2.2247-3e-3 16.315 0.21532 16.978 0.23747 0.72258 1.2179 1.6941 2.0666 2.0477 0.43391 0.1808 1.3568 0.29842 2.824 0.35994 1.1987 0.0503 2.1795 0.15401 2.1795 0.23057 0 0.0765-4.6412 0.13919-10.314 0.13919-5.6726 0-10.314-0.0626-10.314-0.13919zm20.921-22.541c1.7025-0.33952 3.3832-1.1801 4.3712-2.1863 1.3252-1.3496 2.5966-3.4818 3.2589-5.4653 0.91153-2.73 0.41045-7.6751-1.056-10.422-1.3445-2.5184-4.0481-4.6834-7.266-4.9323-1.835-0.14193-5.1216-0.06145-5.9629 0.18187-1.3787 0.39876-1.0522 0.60786-1.1278 7.7686-0.0371 3.5116 2e-3 8.1316 0.0863 10.267 0.16991 4.2908 0.19525 4.6886 1.2236 4.8574 0.91066 0.14956 5.0667 0.21168 6.4726-0.06871z" stroke-width=".16371"/><path d="m133.74 103.45c-0.36526-0.84651-2.7038-4.2965-2.8043-4.1373-0.0136 0.0214-0.065 0.39436-0.11435 0.82858-0.11016 0.96911-0.21188 1.1457-0.53155 0.9226-0.46709-0.32591-1.0046-1.5372-1.0721-2.4158-0.037-0.48294-0.0907-1.1607-0.11929-1.5062l-0.0519-0.62818-0.52714 0.81678c-0.28988 0.44925-0.60559 1.1611-0.70151 1.5819-0.0957 0.42087-0.21572 0.77446-0.26628 0.78588-0.20462 0.0463 0.20676-1.5044 0.53818-2.0297 0.87456-1.3849 0.88863-1.299-0.6066-3.697l-0.39491-0.63333-0.38997 0.81699c-0.37104 0.77732-1.2208 1.7123-1.68 1.8487-0.30228 0.08979-0.0785-0.21236 0.42562-0.57646 0.23379-0.16894 0.71472-0.791 1.0685-1.3827 0.35378-0.59169 0.67071-1.0585 0.70434-1.0372 0.0337 0.0212 0.25799 0.40072 0.49856 0.84335 0.24061 0.4426 0.45297 0.78013 0.47199 0.75005 0.0189-0.0301 0.0658-0.39569 0.10422-0.8125 0.0383-0.4168 0.14505-0.87709 0.23681-1.0229 0.0937-0.14818 0.0448-0.42792-0.1105-0.63456-0.27757-0.3696-0.23855-0.53405 0.3163-1.3334 0.52006-0.74918 0.62759-2.761 0.23158-4.3272-0.19915-0.7873-0.2656-1.2663-0.14771-1.0645 0.47007 0.80489 0.78513 2.7952 0.63309 3.9995-0.0857 0.67946-0.12369 1.2558-0.0837 1.2809 0.11849 0.07471 0.64335-1.2765 0.76523-1.9697 0.0622-0.35418 0.0161-1.0962-0.10265-1.649-0.11857-0.55283-0.1498-0.96332-0.0689-0.91228 0.24609 0.1554 0.51095 1.8036 0.42622 2.6522-0.0439 0.43976-0.20742 1.0975-0.36335 1.4615-0.5388 1.2579-0.12511 0.97345 0.87109-0.59899 1.5046-2.3754 3.3034-4.6859 4.3347-5.5687 0.50662-0.43371 1.3506-1.1944 1.8756-1.6905 1.0319-0.97516 3.3878-2.4666 4.7458-3.0042 1.8546-0.73432 3.4644-0.41663 3.8843 0.76649 0.2808 0.79055 0.0532 2.1777-0.55948 3.414-0.68436 1.3808-1.005 2.3935-1.1092 3.5035-0.0449 0.47759-0.21686 1.3309-0.38222 1.8962-0.16537 0.56531-0.34105 1.4544-0.39029 1.9757-0.11582 1.2289-0.38873 1.4754-2.1264 1.9212-0.76454 0.19631-1.2615 0.38501-1.1042 0.41956 0.15724 0.03484 0.68431 0.24989 1.1712 0.47847 1.7445 0.819 2.9523 2.6026 2.8144 4.156-0.0413 0.46639-0.0903 1.1604-0.1087 1.5423-0.0272 0.56744-0.17049 0.88806-0.78348 1.7537-0.9467 1.337-2.4949 2.3684-4.7029 3.1329-2.3502 0.81342-4.116 0.47033-4.7147-0.91694zm1.71 0.69103c0.84219-0.0782 0.61862-0.5539-0.24138-0.51364-0.37048 0.0173-0.70586 0.0801-0.7453 0.13966-0.13591 0.20421 0.44472 0.42439 0.98674 0.37405zm-0.42942-1.032c0.13789-0.10288 0.1992-0.25011 0.13613-0.3271-0.063-0.077-0.37752-0.70464-0.69899-1.3948-0.32142-0.69017-0.88592-1.6079-1.2544-2.0395-0.36847-0.43159-0.9559-1.133-1.3054-1.5588l-0.6354-0.77417 0.1968 0.58141c0.10735 0.32008 0.43221 1.0443 0.72092 1.6098 0.28869 0.56547 0.64859 1.3645 0.79979 1.7756 0.5385 1.4641 1.5364 2.5041 2.0412 2.1273zm2.2429 0.83204c0.23532-0.25162 0.24484-0.35167 0.0412-0.43189-0.14594-0.0575-0.37935 0.0296-0.51866 0.19341-0.36087 0.42414 0.0922 0.65044 0.47761 0.23856zm-0.99075-1.1676c0.15731-0.0355 0.41748-0.27273 0.57807-0.52701 0.34735-0.55003 0.0574-1.3844-0.98933-2.8454-0.36389-0.50806-0.80374-1.1925-0.9774-1.5209-0.24784-0.46886-0.71823-0.88189-2.1881-1.9212-1.305-0.9228-1.9025-1.2763-1.9719-1.1665-0.15912 0.25202 1.2629 2.4807 2.23 3.495 0.93766 0.98342 1.5253 1.8693 2.0729 3.1247 0.51288 1.176 0.77898 1.4668 1.2458 1.3614zm-4.7562-4.1184c-0.38088-0.87622-0.82206-1.9545-0.98035-2.3963-0.26729-0.74579-0.29018-0.76991-0.32134-0.33734-0.0605 0.83941 0.38545 2.6973 0.69753 2.9062 0.16705 0.11167 0.47878 0.43566 0.69287 0.71977 0.64187 0.85148 0.63361 0.76931-0.0886-0.89236zm6.1591 4.2275c0.0508-0.0803 0.0266-0.18766-0.0534-0.23853-0.0803-0.0508-0.18766-0.0266-0.23853 0.0534-0.0508 0.0803-0.0266 0.18763 0.0534 0.23851 0.0804 0.0508 0.18765 0.0264 0.23827-0.0545zm1.079 0.23362c0.12128-0.19206-0.28681-0.28153-0.49759-0.10892-0.1031 0.0842-0.0568 0.15915 0.12002 0.19439 0.15812 0.0318 0.32803-6e-3 0.37755-0.0855zm-0.17483-0.94027c0.19382-0.018 0.45649-0.1511 0.58358-0.29583 0.18702-0.21256 0.0677-0.53533-0.62439-1.6885l-0.85553-1.4257-1.009-0.39015c-0.55492-0.21458-1.0096-0.31723-1.0105-0.22819-8.7e-4 0.08908 0.2536 0.47307 0.56539 0.85333 0.31179 0.38026 0.75538 1.1692 0.98567 1.7532 0.44121 1.1189 0.78415 1.4762 1.3646 1.4219zm1.5371 0.65113c0.1031-0.0842 0.0568-0.15913-0.12002-0.1944-0.15809-0.0316-0.32805 6e-3 -0.37755 0.0855-0.12129 0.1921 0.28681 0.28153 0.49759 0.10892zm0.20059-0.72915c0.10041-0.049 0.0801-0.15385-0.0453-0.23296-0.12528-0.0791-0.26935-0.0781-0.3201 2e-3 -0.0508 0.0803-0.0304 0.18519 0.0453 0.23296 0.0756 0.0477 0.21964 0.0469 0.32008-2e-3zm-6e-3 -0.86293c0.4659-0.10523 0.91606-0.97062 0.70154-1.3486-0.36334-0.64026-2.4292-1.6532-2.9016-1.4227-0.0969 0.04719-0.0633 0.24392 0.0742 0.43696 0.13766 0.19317 0.54004 0.76661 0.89379 1.2746 0.73812 1.06 0.8406 1.1481 1.2318 1.0598zm1.4202 7.7e-4c-0.0508-0.2274-0.47295-0.17798-0.47523 0.0555-8.7e-4 0.13872 0.0819 0.18784 0.25322 0.14914 0.14049-0.0314 0.24028-0.12379 0.22203-0.20467zm-5.1306-3.3517c0.50991 0.19483 1.1134 0.30235 1.3411 0.23881 0.39106-0.10907 0.39721-0.13814 0.11467-0.51417-0.16472-0.21931-0.4136-0.4708-0.55304-0.55884-0.13941-0.08814-0.28177-0.28492-0.31621-0.43748-0.0343-0.15256-0.31881-0.42352-0.63136-0.60252-0.3128-0.17883-0.82639-0.59524-1.1413-0.92541-0.54767-0.57415-0.61668-0.59995-1.5854-0.5929-0.55704 4e-3 -1.0738-0.02907-1.1482-0.07361-0.0744-0.04459-0.37337-0.05902-0.66421-0.03214l-0.52882 0.04881 1.2453 0.92065c0.68488 0.50637 1.3638 1.0242 1.5087 1.1508 0.60662 0.53002 1.4892 1.0455 2.3588 1.3779zm-4.8015-3.8129c0.29393-0.01488 0.91711 0.0081 1.3849 0.05097 0.46779 0.0427 1.6527-0.0828 2.6331-0.27939 0.98044-0.19659 1.9564-0.31193 2.1688-0.25639 0.47621 0.12477 0.65966-0.1074 0.27618-0.34965-0.15508-0.09803-1.3997-0.05714-2.7657 0.09068-1.366 0.14785-2.5991 0.19705-2.7401 0.10938-0.2765-0.17151-2.0369 0.06848-2.1816 0.29771-0.1167 0.18481 0.55844 0.3704 1.2245 0.33667zm11.06 6.31c0.0657-0.2114 0.17055-0.46719 0.23284-0.56837 0.0623-0.10119 0.0146-0.24621-0.10578-0.32235-0.23522-0.14854-0.37588 0.0045-0.56543 0.6139-0.0657 0.21143-0.0208 0.44676 0.0996 0.52291 0.15599 0.0985 0.25362 0.0278 0.33885-0.24586zm-11.404-7.3038c0.24412-0.04283 0.98846-0.05613 1.6539-0.03021 1.3464 0.05245 2.0736-0.21728 0.82576-0.30638-0.41284-0.02945-0.82009-0.09746-0.905-0.1511-0.0849-0.05362-0.63173 0.01501-1.2151 0.15257-1.0125 0.23867-1.2899 0.49704-0.35966 0.335zm10.57 6.3168c0.16541-0.23281 0.3238-0.52375 0.3521-0.64639 0.0621-0.26897-1.0082-0.9769-1.8899-1.2502-0.33999-0.10536-1.1416-0.41925-1.7813-0.69746-1.836-0.79848-1.4288-0.14773 1.0431 1.6671 1.9552 1.4355 1.9238 1.4227 2.276 0.92693zm-8.3085-9.437c1.8143-1.3 2.1227-1.5857 2.7113-2.5122 0.81151-1.2778 0.84538-1.5449 0.18091-1.4381-0.26837 0.0428-0.72205 0.07621-1.0083 0.0735-0.36322-0.0035-0.75898 0.20588-1.31 0.69248-1.3092 1.1564-3.775 4.445-3.9352 5.2485-0.0704 0.3527 0.3396 0.10094 3.3614-2.0642zm0.0756 2.381c0.64255 0.06818 1.6694-0.01308 2.3672-0.18787 0.67783-0.16974 2.0056-0.35962 2.9508-0.42178 1.5201-0.09999 2.3576-0.35316 2.6382-0.79735 0.15366-0.24333-0.11668-1.0861-0.4074-1.2696-0.15388-0.09721-0.96142-0.12416-1.7945-0.06001-0.83305 0.06417-2.163 0.11584-2.9555 0.1148-0.79244-1e-3 -1.5943 0.0445-1.7819 0.10122-0.2755 0.0833-3.0656 1.9203-3.9711 2.6146-0.1208 0.09222 0.23942 0.08202 0.80004-0.02334 0.56062-0.10535 1.53-0.13709 2.1541-0.0706zm5.4908 4.2773c3.0032 1.1825 2.7249 1.1185 2.7274 0.62739 4e-3 -0.88359-0.54148-1.2341-2.5911-1.6638-2.6681-0.55937-3.0745-0.62294-3.156-0.49383-0.1269 0.20097 0.67188 0.60574 3.0197 1.5302zm0.0524-1.4623c0.65418 0.16387 1.2667 0.26021 1.3612 0.21412 0.29612-0.14433-0.47058-1.0647-1.0207-1.2252-1.0909-0.31836-4.1002-0.1155-4.104 0.27667-8e-4 0.08689 0.57799 0.22064 1.2863 0.29723 0.70832 0.07659 1.8231 0.27332 2.4772 0.43721zm3.9318 3.0836c0.0508-0.08037-0.0101-0.21088-0.13554-0.29-0.12535-0.07903-0.22876-0.05236-0.22985 0.05907-8.7e-4 0.11176 0.0598 0.24228 0.13543 0.29003 0.0756 0.04778 0.17901 0.02123 0.22985-0.05907zm-0.16754-1.4813c-0.0543-0.24243-0.31855-0.09609-0.32122 0.17806-2e-3 0.20709 0.0322 0.22902 0.17564 0.11166 0.0979-0.08028 0.16349-0.21056 0.1456-0.28977zm-0.46328-0.75673c0.0508-0.08034 0.0264-0.18764-0.0534-0.23854-0.0804-0.05066-0.18766-0.0265-0.23841 0.05395-0.0508 0.08035-0.0265 0.18766 0.0535 0.23852 0.0804 0.05073 0.18765 0.02651 0.2384-0.05394zm-0.79228-1.0113c-0.0462-0.35353-0.53893-0.76512-0.66918-0.55884-0.13372 0.21177-0.0166 0.43243 0.35379 0.66629 0.30243 0.191 0.35202 0.1741 0.31538-0.10747zm-4.3219-5.8303c2.808-0.04728 3.6242-0.18635 3.9293-0.66961 0.69226-1.0963-0.75442-1.5228-3.2287-0.95195-1.2362 0.28522-1.5892 0.44894-2.0586 0.95487-0.31155 0.33586-0.5358 0.63003-0.4983 0.65372 0.0374 0.02368 0.87284 0.02953 1.8562 0.01298zm4.9523 2.2423c0.0508-0.08034 0.0304-0.1852-0.0454-0.23297-0.0756-0.04781-0.21966-0.04688-0.32011 0.0022-0.10041 0.04899-0.0801 0.15385 0.0454 0.23297 0.12528 0.07918 0.26935 0.07815 0.32007-0.0022zm-3.4898-4.5373c1.9049-0.28724 2.2001-0.40689 2.3838-0.96606 0.50305-1.5316-2.8722-1.1448-3.8756 0.44412-0.22129 0.35048-0.35289 0.66809-0.2924 0.70583 0.0606 0.03779 0.8634-0.04499 1.7843-0.18389zm3.6812 3.1889c0.0808-0.328-0.20581-0.57146-0.3684-0.31354-0.0805 0.12725-0.0419 0.29713 0.0855 0.37743 0.12724 0.08036 0.25468 0.05147 0.28306-0.06421zm-4.4017-5.1431c0.91754-0.29191 2.2022-0.64239 2.8548-0.77885 1.2148-0.25404 1.7689-0.55311 1.6871-0.91059-0.089-0.3869-1.4675-0.39821-2.5952-0.02107-1.0536 0.35233-3.6298 1.6732-3.8052 1.9509-0.19914 0.3154 0.32442 0.24769 1.8584-0.24036zm4.2601 3.6611c8.8e-4 -0.15903-0.0777-0.22044-0.23609-0.18472-0.13116 0.02954-0.23947 0.16124-0.24077 0.29242-2e-3 0.15908 0.0777 0.22045 0.23612 0.18472 0.13116-0.02954 0.23946-0.16124 0.24074-0.29242zm-3.7858-5.1266c1.5767-0.72216 2.3451-0.93028 3.4343-0.93013 0.82595 1.36e-4 1.2685-0.31424 0.83122-0.5904-0.84127-0.53124-4.5604 0.79844-5.9939 2.143-0.37457 0.35131-0.48229 0.3901 1.7284-0.62246zm4.361 4.3776c0.0732-0.11581 0.10097-0.27615 0.0619-0.35626-0.114-0.23358-0.61147-0.17278-0.61385 0.07498-3e-3 0.32619 0.39537 0.52924 0.55193 0.28127zm-0.5561-1.3853c0.0761-0.12053 0.0398-0.2815-0.0806-0.35766-0.12051-0.07614-0.2815-0.03974-0.35759 0.08086-0.0762 0.12059-0.0399 0.2815 0.0806 0.35765 0.12062 0.07612 0.28151 0.03982 0.35762-0.08086zm-4.2384-3.6466c0.15909-0.25194 2.4396-1.1489 3.4374-1.352 0.56258-0.11453 1.0715-0.28524 1.1309-0.37957 0.24126-0.38207-0.9771-0.66343-1.8358-0.42402-0.48741 0.13585-2.645 1.5968-3.2384 2.1927-0.35324 0.35469-0.35175 0.36816 0.0257 0.23266 0.22059-0.07842 0.43646-0.20061 0.4803-0.27006zm4.8817 2.6245c0.41752-0.13698 0.50052-0.60638 0.14596-0.83029-0.34564-0.21826-0.77811 0.0735-0.7241 0.48851 0.0509 0.39168 0.18388 0.47019 0.57818 0.34177zm0.99663-1.9795c0.03-0.12155-0.0333-0.2765-0.14035-0.34418-0.10713-0.06764-0.27424-0.05781-0.37111 0.02117-0.10501 0.08557-0.0481 0.22518 0.14037 0.34418 0.18836 0.11893 0.33869 0.11037 0.37109-0.02117zm0.74882-1.4286c0.0625-0.09894-0.0364-0.33721-0.2197-0.5295-0.24478-0.25672-0.42665-0.31276-0.68447-0.21094-0.47028 0.18575-0.52913 0.31192-0.26652 0.57123 0.29262 0.28895 1.028 0.39521 1.1708 0.16918zm-0.96193-1.5345c0.32218-0.15724 0.12099-0.58129-0.3491-0.7357-0.61469-0.20189-0.82336 0.2175-0.27918 0.56116 0.23639 0.14926 0.51911 0.2278 0.62828 0.17456z" stroke-width=".17284"/></g></svg>
