<?xml version="1.0" encoding="UTF-8" standalone="no"?>
<!-- Created with Inkscape (http://www.inkscape.org/) -->

<svg
   width="167.92255mm"
   height="175.40318mm"
   viewBox="0 0 167.92255 175.40319"
   version="1.1"
   id="svg5"
   xml:space="preserve"
   inkscape:export-filename="../Desktop/ourLogo.svg"
   inkscape:export-xdpi="96"
   inkscape:export-ydpi="96"
   inkscape:version="1.2.2 (b0a84865, 2022-12-01)"
   sodipodi:docname="ourLogo-no-leaf.svg"
   xmlns:inkscape="http://www.inkscape.org/namespaces/inkscape"
   xmlns:sodipodi="http://sodipodi.sourceforge.net/DTD/sodipodi-0.dtd"
   xmlns="http://www.w3.org/2000/svg"
   xmlns:svg="http://www.w3.org/2000/svg"><sodipodi:namedview
     id="namedview7"
     pagecolor="#ffffff"
     bordercolor="#000000"
     borderopacity="0.25"
     inkscape:showpageshadow="2"
     inkscape:pageopacity="0.0"
     inkscape:pagecheckerboard="0"
     inkscape:deskcolor="#d1d1d1"
     inkscape:document-units="mm"
     showgrid="false"
     inkscape:zoom="0.9080591"
     inkscape:cx="354.05185"
     inkscape:cy="277.51498"
     inkscape:window-width="1728"
     inkscape:window-height="988"
     inkscape:window-x="0"
     inkscape:window-y="25"
     inkscape:window-maximized="0"
     inkscape:current-layer="layer1" /><defs
     id="defs2" /><g
     inkscape:groupmode="layer"
     id="layer1"
     inkscape:label="Layer 3"><path
       style="fill:#000000;stroke-width:0.253399"
       d="M 77.929876,89.159942 V 33.918859 h 1.266989 1.267 v 55.241083 55.241088 h -1.267 -1.266989 z M 20.408194,122.89799 c 0,-0.11964 1.510884,-0.28055 3.357541,-0.35766 4.842661,-0.2022 6.179035,-0.81411 7.455605,-3.4138 l 0.716527,-1.45915 0.178299,-26.353542 C 32.294769,64.913529 32.229005,58.194348 31.774142,56.393702 31.44216,55.079336 30.000773,53.556324 28.5642,53.001975 c -1.580731,-0.609987 -6.301545,-0.601611 -8.662813,0.01533 -3.31935,0.867322 -7.102009,3.091261 -8.994109,5.287908 -1.7810603,2.06774 -3.3329461,5.802298 -4.3186256,10.392687 -0.2819955,1.313244 -0.5392055,1.963845 -0.7763647,1.963845 -0.1950667,0 -0.3536863,-0.142542 -0.3524605,-0.31675 0.0045,-0.684711 1.2822156,-11.302379 1.532026,-12.733322 0.3670349,-2.102616 1.3049092,-3.927562 2.3970961,-4.664375 1.9217547,-1.29646 1.7969617,-1.290513 27.0853597,-1.290513 26.42676,0 25.633527,-0.05054 27.525728,1.753563 1.443208,1.376009 1.826425,2.927737 2.77396,11.232395 0.622592,5.456777 0.635018,6.019012 0.133002,6.019012 -0.209057,0 -0.380103,-0.215893 -0.380103,-0.479767 0,-1.199865 -1.615131,-6.691136 -2.527005,-8.591539 -1.231104,-2.565676 -3.167658,-4.683966 -5.758224,-6.298596 -2.450907,-1.527582 -4.82414,-2.31866 -8.03109,-2.677028 -5.572345,-0.622695 -8.579078,0.86459 -9.275227,4.587995 -0.313967,1.679217 -0.331263,52.86454 -0.01946,57.69435 0.239993,3.71818 0.615754,4.79101 2.14976,6.13788 1.214888,1.0667 2.257301,1.32532 6.040084,1.49849 1.776956,0.0814 3.230836,0.24556 3.230836,0.3649 0,0.11934 -7.183878,0.217 -15.964162,0.217 -8.780285,0 -15.964174,-0.0978 -15.964174,-0.21747 z m 72.72564,0.001 c 0,-0.1184 1.51807,-0.27909 3.373486,-0.35689 2.271032,-0.0951 3.69951,-0.27727 4.37113,-0.55713 1.3323,-0.55509 2.84257,-2.06507 3.17008,-3.16946 0.14612,-0.49266 0.36653,-3.23336 0.48982,-6.09045 0.31104,-7.20817 0.30545,-51.380152 -0.006,-53.539494 -0.20005,-2.681467 -1.22276,-3.986766 -2.3906,-4.877513 -1.19562,-0.911945 -3.524524,-1.598153 -6.586472,-1.940686 -2.652732,-0.296759 -3.01275,-0.263732 -2.67194,-0.983585 0.125018,-0.264049 6.152337,-0.217241 16.595562,-0.156338 17.1768,0.100176 17.71419,0.133563 22.68705,1.409844 6.84375,1.756444 11.3313,5.02398 13.77095,10.02715 1.20459,2.470358 1.73168,4.813296 1.71337,7.616225 -0.0178,2.735027 -0.48813,4.699498 -1.70924,7.139785 -1.73772,3.472744 -4.25479,5.85075 -8.58819,8.549199 -4.53947,2.826772 -4.05053,2.950773 -2.74364,5.194208 1.70116,2.920245 14.41831,21.634235 17.07227,25.122795 3.0446,4.00204 5.34588,5.46255 9.0555,5.74705 1.01484,0.0778 1.90324,0.23546 1.97421,0.35029 0.26587,0.43018 -1.31563,0.53021 -6.54654,0.41402 -4.35044,-0.0966 -5.62402,-0.20772 -6.64655,-0.57975 -4.43425,-1.6133 -6.56775,-4.0573 -17.68837,-20.26266 -5.15311,-7.509328 -6.45313,-9.285165 -7.38033,-10.08165 -1.75366,-1.506432 -5.30623,-2.564835 -8.09298,-2.411113 -2.16557,0.119447 -2.524,0.442169 -2.57016,3.073179 -0.0604,3.443504 -0.004,25.253274 0.3333,26.279494 0.36755,1.11845 1.88518,2.62215 3.19879,3.16946 0.67163,0.27986 2.1001,0.46192 4.37115,0.55713 1.85541,0.0778 3.37348,0.23839 3.37348,0.35689 0,0.11841 -7.18388,0.21545 -15.96416,0.21545 -8.7803,0 -15.964177,-0.0969 -15.964177,-0.21545 z M 125.51631,88.01024 c 2.63526,-0.525526 5.23661,-1.826616 6.76588,-3.38401 2.05123,-2.088957 4.01914,-5.389254 5.04429,-8.459498 1.41091,-4.225598 0.63532,-11.87981 -1.6346,-16.131563 -2.08114,-3.89815 -6.26589,-7.249141 -11.24659,-7.634397 -2.84025,-0.219691 -7.92741,-0.09512 -9.2296,0.281504 -2.13406,0.61722 -1.62864,0.940877 -1.74563,12.024618 -0.0575,5.435419 0.003,12.586423 0.13358,15.891118 0.263,6.641512 0.30223,7.257162 1.89399,7.518576 1.40956,0.23149 7.84241,0.327644 10.01864,-0.10635 z"
       id="path595-0"
       sodipodi:nodetypes="ccccccccccsscscscssscssssssssssssscsscccsssscsssssscsssssssssssscscssccssssssccsss" /><path
       d="m 153.70756,114.94704 c -0.38901,-0.90153 -2.87951,-4.57574 -2.98659,-4.40616 -0.0145,0.0228 -0.0693,0.41999 -0.12178,0.88243 -0.11733,1.03209 -0.22566,1.22017 -0.56611,0.98256 -0.49743,-0.34709 -1.06989,-1.63708 -1.14175,-2.57281 -0.0394,-0.51432 -0.0966,-1.23615 -0.12705,-1.6041 l -0.0552,-0.66901 -0.56141,0.86987 c -0.30872,0.47845 -0.64493,1.23656 -0.7471,1.68472 -0.10188,0.44823 -0.22974,0.8248 -0.28358,0.83696 -0.21793,0.0493 0.22019,-1.60215 0.57316,-2.16164 0.93139,-1.47494 0.94638,-1.38338 -0.64603,-3.93724 l -0.42058,-0.6745 -0.41531,0.87009 c -0.39516,0.82783 -1.3001,1.82362 -1.78922,1.96885 -0.32193,0.0956 -0.0837,-0.22616 0.45327,-0.61393 0.24899,-0.17991 0.76117,-0.8424 1.13791,-1.47256 0.37678,-0.63014 0.7143,-1.12725 0.75012,-1.10462 0.0359,0.0226 0.27476,0.42677 0.53096,0.89816 0.25625,0.47136 0.48241,0.83082 0.50266,0.7988 0.0201,-0.0321 0.0701,-0.4214 0.111,-0.86531 0.0408,-0.44388 0.15448,-0.93409 0.2522,-1.08937 0.0998,-0.15782 0.0478,-0.45573 -0.11768,-0.67581 -0.29561,-0.39361 -0.25405,-0.56876 0.33686,-1.42001 0.55387,-0.79787 0.66837,-2.940438 0.24663,-4.608411 -0.2121,-0.838468 -0.28286,-1.348608 -0.15731,-1.133658 0.50061,0.8572 0.83615,2.976851 0.67424,4.25947 -0.0913,0.723609 -0.13174,1.337459 -0.0892,1.364159 0.12618,0.0796 0.68516,-1.359464 0.81496,-2.097712 0.0662,-0.377199 0.0172,-1.16747 -0.10931,-1.756183 -0.12628,-0.588762 -0.15954,-1.025931 -0.0733,-0.971576 0.26208,0.165498 0.54415,1.920794 0.45392,2.824606 -0.0468,0.468346 -0.2209,1.168775 -0.38697,1.556465 -0.57382,1.33968 -0.13323,1.03672 0.9277,-0.63791 1.60242,-2.529772 3.51806,-4.990424 4.6164,-5.93061 0.53954,-0.461893 1.4384,-1.27206 1.99745,-1.800385 1.09893,-1.038534 3.60798,-2.626868 5.05421,-3.19947 1.97512,-0.782047 3.68956,-0.443711 4.13678,0.816304 0.29905,0.841929 0.0567,2.319277 -0.59584,3.635915 -0.72884,1.47049 -1.07034,2.549094 -1.18135,3.731148 -0.0478,0.508628 -0.23095,1.417388 -0.40705,2.019475 -0.17612,0.602053 -0.36321,1.548893 -0.41566,2.104073 -0.12335,1.30873 -0.41399,1.57131 -2.26455,2.04601 -0.81423,0.20906 -1.34345,0.41003 -1.17594,0.44683 0.16747,0.0371 0.72878,0.26612 1.24727,0.50956 1.85786,0.87223 3.14417,2.77178 2.99731,4.42614 -0.044,0.4967 -0.0961,1.23585 -0.11577,1.64258 -0.0289,0.60431 -0.18157,0.94577 -0.83439,1.86772 -1.00823,1.42387 -2.65707,2.52228 -5.00853,3.33651 -2.50297,0.86629 -4.38355,0.5009 -5.02109,-0.97654 z m 1.82107,0.73593 c 0.89692,-0.0833 0.65883,-0.58989 -0.25706,-0.54702 -0.39457,0.0184 -0.75174,0.0854 -0.79374,0.14875 -0.14474,0.21748 0.47362,0.45197 1.05087,0.39835 z m -0.45732,-1.09901 c 0.14684,-0.10953 0.21213,-0.26636 0.14498,-0.34836 -0.0671,-0.082 -0.40206,-0.75043 -0.74442,-1.48542 -0.34232,-0.73502 -0.9435,-1.7124 -1.33596,-2.17203 -0.39242,-0.45963 -1.01802,-1.20668 -1.39021,-1.66016 l -0.67669,-0.82448 0.20958,0.6192 c 0.11433,0.34088 0.46031,1.11219 0.76778,1.71443 0.30745,0.60223 0.69075,1.45319 0.85177,1.89098 0.5735,1.55922 1.63624,2.66683 2.17383,2.26558 z m 2.38862,0.88612 c 0.25063,-0.26798 0.26077,-0.37453 0.0439,-0.45997 -0.15542,-0.0612 -0.40401,0.0316 -0.55237,0.20598 -0.38432,0.45171 0.0982,0.69272 0.50865,0.25407 z m -1.05513,-1.24354 c 0.16754,-0.0378 0.44461,-0.29046 0.61564,-0.56126 0.36992,-0.58578 0.0611,-1.47437 -1.05363,-3.03037 -0.38754,-0.54109 -0.85597,-1.26996 -1.04092,-1.61979 -0.26395,-0.49934 -0.76491,-0.9392 -2.33032,-2.04612 -1.3898,-0.98276 -2.02615,-1.3592 -2.10002,-1.24227 -0.16947,0.2684 1.34495,2.64195 2.37496,3.72219 0.99861,1.04733 1.62445,1.9908 2.20758,3.32777 0.54621,1.25246 0.82961,1.56213 1.32671,1.44985 z m -5.06533,-4.38603 c -0.40564,-0.93316 -0.8755,-2.08155 -1.04407,-2.552 -0.28466,-0.79426 -0.30904,-0.81995 -0.34223,-0.35926 -0.0644,0.89396 0.4105,2.87263 0.74287,3.09506 0.1779,0.11892 0.5099,0.46398 0.7379,0.76655 0.68359,0.90682 0.67478,0.81931 -0.0944,-0.95036 z m 6.55934,4.50224 c 0.0541,-0.0856 0.0283,-0.19985 -0.0569,-0.25403 -0.0855,-0.0541 -0.19984,-0.0283 -0.25402,0.0569 -0.0541,0.0855 -0.0283,0.19981 0.0569,0.254 0.0856,0.0541 0.19985,0.0281 0.25376,-0.058 z m 1.14908,0.2488 c 0.12915,-0.20455 -0.30546,-0.29982 -0.52993,-0.116 -0.10976,0.0896 -0.0605,0.1695 0.12782,0.20702 0.16839,0.0339 0.34934,-0.006 0.40208,-0.0911 z m -0.1862,-1.00138 c 0.20642,-0.0192 0.48616,-0.16091 0.62151,-0.31505 0.19918,-0.22638 0.0721,-0.57013 -0.66497,-1.79827 l -0.91114,-1.51841 -1.07452,-0.4155 c -0.59099,-0.22853 -1.07526,-0.33785 -1.07617,-0.24302 -7.6e-4,0.0949 0.27009,0.50381 0.60214,0.90879 0.33205,0.40497 0.80447,1.24519 1.04973,1.86719 0.46988,1.19164 0.83511,1.57217 1.45333,1.51428 z m 1.63704,0.69345 c 0.10976,-0.0896 0.0605,-0.16947 -0.12782,-0.20703 -0.16837,-0.0336 -0.34937,0.006 -0.40209,0.0911 -0.12916,0.20458 0.30545,0.29982 0.52993,0.116 z m 0.21362,-0.77654 c 0.10695,-0.0521 0.0854,-0.16385 -0.0482,-0.24809 -0.13342,-0.0842 -0.28686,-0.0832 -0.3409,0.002 -0.0541,0.0855 -0.0324,0.19722 0.0482,0.2481 0.0805,0.0508 0.23392,0.0499 0.34089,-0.002 z m -0.007,-0.91901 c 0.49618,-0.11207 0.9756,-1.0337 0.74713,-1.43628 -0.38695,-0.68187 -2.58709,-1.76063 -3.09016,-1.51514 -0.10324,0.0502 -0.0674,0.25977 0.079,0.46535 0.14661,0.20573 0.57514,0.81643 0.95188,1.35746 0.78609,1.12884 0.89523,1.22275 1.31186,1.12867 z m 1.51244,7.8e-4 c -0.0541,-0.24218 -0.50368,-0.18955 -0.50611,0.0591 -7.8e-4,0.14774 0.0873,0.20005 0.26967,0.15883 0.14962,-0.0334 0.25591,-0.13183 0.23646,-0.21796 z m -5.46399,-3.56952 c 0.54305,0.20748 1.18578,0.32199 1.42829,0.25433 0.41647,-0.11617 0.42303,-0.14712 0.12212,-0.54759 -0.17542,-0.23357 -0.44048,-0.5014 -0.58898,-0.59516 -0.14848,-0.0939 -0.30009,-0.30343 -0.33676,-0.46591 -0.0365,-0.16248 -0.33953,-0.45104 -0.6724,-0.64168 -0.33312,-0.19044 -0.88009,-0.63392 -1.21547,-0.98555 -0.58327,-0.61147 -0.65676,-0.63894 -1.68842,-0.63143 -0.59324,0.004 -1.14354,-0.031 -1.22283,-0.0784 -0.0793,-0.0475 -0.39764,-0.0629 -0.70738,-0.0342 l -0.5632,0.052 1.32625,0.98048 c 0.72939,0.53928 1.45248,1.09079 1.6068,1.22564 0.64605,0.56446 1.58593,1.11348 2.51215,1.46748 z m -5.11356,-4.06071 c 0.31302,-0.0158 0.97671,0.009 1.47486,0.0543 0.49819,0.0455 1.76006,-0.0882 2.80424,-0.29754 1.04415,-0.20938 2.08352,-0.3322 2.30969,-0.27306 0.50716,0.13288 0.70253,-0.11438 0.29413,-0.37237 -0.16516,-0.10441 -1.49063,-0.0609 -2.94547,0.0966 -1.4548,0.15745 -2.76799,0.20985 -2.9182,0.11649 -0.29447,-0.18266 -2.16925,0.0729 -2.32341,0.31705 -0.12428,0.19683 0.59473,0.39448 1.3041,0.35856 z m 11.7788,6.72009 c 0.0699,-0.22514 0.18164,-0.49755 0.24797,-0.6053 0.0663,-0.10777 0.0155,-0.26222 -0.11265,-0.3433 -0.25051,-0.1582 -0.40032,0.005 -0.60217,0.6538 -0.07,0.22516 -0.0222,0.47579 0.10604,0.55689 0.16615,0.10491 0.27012,0.0296 0.36089,-0.26184 z m -12.1458,-7.77843 c 0.26,-0.0456 1.05271,-0.0598 1.76142,-0.0322 1.43393,0.0559 2.20833,-0.23141 0.87944,-0.32629 -0.43968,-0.0314 -0.8734,-0.10379 -0.96382,-0.16092 -0.0904,-0.0571 -0.6728,0.016 -1.29405,0.16249 -1.07828,0.25418 -1.37368,0.52933 -0.38303,0.35677 z m 11.25666,6.72733 c 0.17616,-0.24794 0.34485,-0.55778 0.37499,-0.68839 0.0661,-0.28646 -1.07374,-1.0404 -2.0127,-1.33145 -0.36209,-0.11221 -1.21578,-0.44651 -1.89707,-0.7428 -1.95532,-0.85037 -1.52167,-0.15732 1.11084,1.77545 2.08229,1.52878 2.04887,1.51516 2.42392,0.98717 z m -8.84844,-10.05034 c 1.9322,-1.384495 2.26065,-1.688801 2.88755,-2.675432 0.86425,-1.360793 0.90032,-1.645271 0.19266,-1.531561 -0.28581,0.04558 -0.76897,0.08116 -1.07384,0.07828 -0.38682,-0.0037 -0.8083,0.219264 -1.39515,0.737484 -1.39431,1.231505 -4.02036,4.733879 -4.19101,5.589569 -0.075,0.37562 0.36167,0.10749 3.57982,-2.19834 z m 0.0805,2.53578 c 0.6843,0.0726 1.77784,-0.0139 2.52101,-0.20009 0.72188,-0.18077 2.13598,-0.38299 3.14251,-0.44919 1.61886,-0.10648 2.51087,-0.37611 2.80961,-0.84917 0.16364,-0.25914 -0.12427,-1.15673 -0.43388,-1.35211 -0.16387,-0.10353 -1.0239,-0.13223 -1.91108,-0.0639 -0.8872,0.0683 -2.30364,0.12337 -3.14755,0.12226 -0.84394,-0.001 -1.69793,0.0474 -1.89773,0.10779 -0.2934,0.0887 -3.26488,2.04514 -4.22916,2.7845 -0.12864,0.0982 0.25498,0.0873 0.85204,-0.0249 0.59705,-0.1122 1.62942,-0.146 2.29408,-0.0752 z m 5.84768,4.55525 c 3.19835,1.25939 2.90201,1.19122 2.90463,0.66816 0.004,-0.941 -0.57666,-1.31433 -2.75947,-1.7719 -2.84153,-0.59572 -3.27431,-0.66343 -3.36114,-0.52593 -0.13515,0.21403 0.71555,0.64511 3.21598,1.62969 z m 0.0558,-1.55733 c 0.6967,0.17452 1.34906,0.27712 1.44965,0.22803 0.31536,-0.15371 -0.50116,-1.13387 -1.08708,-1.30485 -1.16178,-0.33905 -4.36668,-0.123 -4.37073,0.29465 -7.8e-4,0.0925 0.61555,0.23499 1.36991,0.31655 0.75436,0.0816 1.94159,0.29108 2.63825,0.46562 z m 4.18736,3.28402 c 0.0541,-0.0856 -0.0112,-0.22458 -0.14435,-0.30885 -0.13349,-0.0842 -0.24362,-0.0558 -0.24478,0.0629 -7.8e-4,0.11902 0.0636,0.25802 0.14423,0.30887 0.0805,0.0509 0.19064,0.0226 0.24479,-0.0629 z m -0.17842,-1.5776 c -0.0578,-0.25817 -0.33926,-0.10232 -0.3421,0.18963 -0.002,0.22056 0.0343,0.24391 0.18706,0.11892 0.10424,-0.0855 0.17411,-0.22424 0.15505,-0.3086 z m -0.49339,-0.8059 c 0.0541,-0.0856 0.0281,-0.19983 -0.0569,-0.25405 -0.0856,-0.054 -0.19986,-0.0282 -0.25392,0.0575 -0.0541,0.0856 -0.0282,0.19986 0.0569,0.25403 0.0856,0.054 0.19985,0.0282 0.2539,-0.0574 z m -0.84377,-1.07703 c -0.0493,-0.3765 -0.57396,-0.81484 -0.71268,-0.59516 -0.14241,0.22554 -0.0177,0.46053 0.37679,0.70959 0.32208,0.20341 0.3749,0.18541 0.33587,-0.11445 z m -4.60277,-6.209181 c 2.99054,-0.05036 3.85969,-0.198465 4.1847,-0.713126 0.73725,-1.167505 -0.80345,-1.621773 -3.43852,-1.01382 -1.31658,0.303758 -1.6925,0.47812 -2.19239,1.01693 -0.3318,0.357686 -0.57063,0.670977 -0.53068,0.696203 0.0398,0.02521 0.92956,0.03144 1.97689,0.01382 z m 5.27413,2.388061 c 0.0541,-0.0856 0.0324,-0.19723 -0.0483,-0.24811 -0.0805,-0.0509 -0.23394,-0.0499 -0.34091,0.002 -0.10695,0.0522 -0.0854,0.16385 0.0483,0.24811 0.13342,0.0843 0.28685,0.0832 0.34087,-0.002 z m -3.71666,-4.832148 c 2.02868,-0.305901 2.34311,-0.433332 2.53869,-1.02884 0.53575,-1.631146 -3.05892,-1.219234 -4.1275,0.472981 -0.23567,0.373254 -0.37582,0.711511 -0.3114,0.751697 0.0645,0.04024 0.91951,-0.04791 1.90021,-0.195838 z m 3.92047,3.396148 c 0.086,-0.34932 -0.21919,-0.6086 -0.39234,-0.33392 -0.0857,0.13552 -0.0446,0.31644 0.0911,0.40197 0.13551,0.0856 0.27123,0.0548 0.30146,-0.0684 z m -4.68779,-5.477336 c 0.97718,-0.310878 2.34533,-0.684137 3.04038,-0.829466 1.29373,-0.270548 1.88384,-0.589053 1.79672,-0.969769 -0.0948,-0.412048 -1.56287,-0.424091 -2.76384,-0.02244 -1.12207,0.37523 -3.86569,1.781897 -4.05247,2.077643 -0.21208,0.335893 0.3455,0.263785 1.97921,-0.255979 z m 4.53698,3.89906 c 7.8e-4,-0.169364 -0.0828,-0.234764 -0.25144,-0.196722 -0.13968,0.03146 -0.25503,0.171717 -0.25641,0.311428 -0.002,0.16942 0.0828,0.234773 0.25146,0.196719 0.13969,-0.03147 0.25503,-0.171715 0.25639,-0.311425 z m -4.03184,-5.459786 c 1.67916,-0.769088 2.49752,-0.990735 3.65747,-0.990576 0.87963,1.45e-4 1.35098,-0.334661 0.88523,-0.628772 -0.89594,-0.565767 -4.85674,0.850337 -6.38341,2.282226 -0.39892,0.37414 -0.51364,0.415457 1.84069,-0.66291 z m 4.64445,4.662103 c 0.0779,-0.123339 0.10751,-0.294097 0.0659,-0.37941 -0.12141,-0.248764 -0.6512,-0.184012 -0.65374,0.07986 -0.003,0.347391 0.42107,0.56364 0.58781,0.299552 z m -0.59224,-1.475323 c 0.0811,-0.128364 0.0424,-0.299789 -0.0858,-0.380909 -0.12834,-0.08109 -0.29979,-0.04233 -0.38083,0.08612 -0.0812,0.128423 -0.0425,0.299794 0.0858,0.380894 0.12846,0.08107 0.29981,0.04241 0.38086,-0.08612 z m -4.51388,-3.883587 c 0.16942,-0.268314 2.59815,-1.223573 3.66076,-1.439871 0.59915,-0.121974 1.14111,-0.303782 1.20439,-0.404237 0.25694,-0.406904 -1.04061,-0.706548 -1.95512,-0.451579 -0.51909,0.144683 -2.81689,1.700621 -3.4489,2.335256 -0.3762,0.37774 -0.37462,0.392083 0.0273,0.247778 0.23494,-0.08352 0.46483,-0.213652 0.51152,-0.28761 z m 5.19895,2.79507 c 0.44465,-0.145879 0.53304,-0.645789 0.15545,-0.884248 -0.36811,-0.232446 -0.82869,0.07828 -0.77117,0.520255 0.0542,0.417132 0.19583,0.500748 0.61576,0.363986 z m 1.0614,-2.108116 c 0.0319,-0.129451 -0.0354,-0.294471 -0.14947,-0.366548 -0.1141,-0.07204 -0.29206,-0.06157 -0.39523,0.02255 -0.11178,0.09113 -0.0512,0.239812 0.14949,0.366549 0.2006,0.126664 0.36071,0.117543 0.39521,-0.02255 z m 0.79748,-1.521454 c 0.0666,-0.105371 -0.0388,-0.359127 -0.23397,-0.563914 -0.26069,-0.273399 -0.45437,-0.333087 -0.72896,-0.224654 -0.50084,0.197823 -0.56352,0.33219 -0.28384,0.608357 0.31164,0.307728 1.09483,0.420899 1.24686,0.180178 z m -1.02444,-1.634175 c 0.34311,-0.167465 0.12885,-0.619072 -0.37179,-0.783508 -0.65463,-0.215011 -0.87687,0.231632 -0.29733,0.59763 0.25176,0.158956 0.55285,0.242609 0.66912,0.185909 z"
       style="display:inline;fill:#000000;stroke-width:0.184067"
       id="path439-8-3-1-3" /></g></svg>
